<svg width="532" height="335" viewBox="0 0 532 335" fill="none" xmlns="http://www.w3.org/2000/svg">
<path d="M458.945 99.1672C459.195 96.7607 452.728 94.2387 450.283 92.8526L296.131 9.33791C294.363 8.37889 292.398 7.83776 290.388 7.756C288.378 7.67424 286.375 8.05403 284.535 8.86624C244.847 26.424 42.788 114.232 37.2063 116.571L27.65 120.749C27.65 120.749 20.9134 123.761 9.365 128.979C-0.258678 133.31 -5.14751 140.963 8.07542 150.233L168.319 264.3C170.533 265.84 171.518 266 174.43 266.995C175.508 267.14 176.961 268.266 193.379 268.921C209.22 269.546 204.36 266.225 204.36 266.225L185.728 258.698C189.53 253.5 435.241 149.087 452.593 132.203C453.219 131.607 465.056 127.843 465.104 126.977C465.171 122.221 465.036 96.6259 465.104 96.2409L458.945 99.1672ZM353.18 134.706L359.243 138.374L203.051 208.017L185.882 240.957L180.214 237.858C180.57 236.077 160.794 223.64 146.83 214.938C145.675 214.216 129.122 219.414 129.651 221.561C130.209 222.004 127.467 214.823 129.161 214.621L128.554 214.909C129.699 213.639 97.0367 184.992 97.0271 184.27L95.7567 183.394C100.059 184.126 331.537 81.0223 333.462 76.912C333.596 73.9472 333.404 57.6601 333.462 54.4451L385.227 84.8823C384.573 85.8449 359.128 97.2035 352.776 100.034C352.354 100.223 351.996 100.531 351.746 100.921C351.497 101.311 351.366 101.765 351.371 102.228C351.439 107.677 351.66 125.889 351.698 132.261C351.697 132.766 351.834 133.261 352.096 133.692C352.357 134.123 352.733 134.474 353.18 134.706ZM356.068 98.6185L330.401 110.535C329.429 110.987 328.599 111.695 328 112.584C327.401 113.473 327.055 114.508 327.001 115.579C326.946 116.649 327.185 117.714 327.691 118.659C328.197 119.604 328.951 120.393 329.872 120.941L359.291 138.374L356.068 98.6185Z" fill="#061C23"/>
<path d="M180.503 228.453L194.737 211.607L199.289 184.655C199.289 184.655 189.126 177.416 187.74 176.357C187.419 176.051 187.014 175.848 186.577 175.775C186.139 175.701 185.69 175.76 185.286 175.943C182.284 177.147 142.355 194.233 141.364 196.11C140.642 197.477 141.672 220.174 141.72 227.702C141.722 228.202 141.862 228.691 142.123 229.117C142.385 229.543 142.758 229.889 143.202 230.118L148.37 234.18L180.503 228.453Z" fill="#061C23"/>
<path d="M260.688 190.084V215.515L214.917 234.806L211.78 235.412L188.019 221.262L178.338 184.308L184.843 184.77L260.688 190.084Z" fill="#22596D"/>
<path d="M214.916 204.821V242.911L202.088 234.382L179.771 219.943C179.326 219.681 178.958 219.306 178.703 218.857C178.448 218.408 178.315 217.899 178.318 217.383V184.308L184.823 184.77L214.916 204.821Z" fill="url(#paint0_linear_5801_53569)"/>
<path d="M370.994 51.1626V73.6777C371.022 74.1363 370.908 74.5923 370.669 74.9846C370.43 75.3769 370.077 75.6867 369.657 75.8724L136.032 184.645C135.579 184.857 135.075 184.933 134.579 184.867C134.12 184.824 133.68 184.665 133.299 184.405L103.928 164.431C103.792 164.334 103.682 164.205 103.606 164.056C103.531 163.907 103.493 163.741 103.495 163.574V136.699C103.491 136.862 103.528 137.024 103.604 137.169C103.68 137.314 103.791 137.437 103.928 137.527L133.338 157.462C133.72 157.718 134.16 157.877 134.618 157.924C135.113 157.985 135.616 157.909 136.071 157.702L369.647 53.1552C370.037 52.9849 370.369 52.7069 370.606 52.3539C370.843 52.0009 370.975 51.5876 370.985 51.1626H370.994Z" fill="url(#paint1_linear_5801_53569)"/>
<path opacity="0.5" d="M117.083 170.187L93.0914 181.536C92.1686 181.97 91.1111 182.021 90.1512 181.676C89.1913 181.331 88.4074 180.62 87.9716 179.697C87.8768 179.503 87.8026 179.3 87.7502 179.091C87.5055 178.217 87.5769 177.286 87.952 176.46C88.327 175.634 88.9815 174.967 89.8001 174.576L113.782 163.227C114.571 162.856 115.462 162.764 116.309 162.965C117.157 163.166 117.912 163.649 118.45 164.334C118.636 164.553 118.791 164.796 118.912 165.056C119.129 165.513 119.253 166.008 119.279 166.514C119.304 167.019 119.23 167.524 119.06 168C118.89 168.477 118.628 168.915 118.289 169.29C117.95 169.666 117.54 169.97 117.083 170.187V170.187Z" fill="#071B23"/>
<path d="M118.45 164.335L87.7502 179.139C87.5055 178.266 87.5769 177.334 87.952 176.508C88.327 175.682 88.9815 175.015 89.8001 174.625L113.782 163.276C114.566 162.899 115.453 162.799 116.301 162.991C117.148 163.184 117.905 163.657 118.45 164.335Z" fill="#22596D"/>
<path opacity="0.5" d="M191.974 218.5L167.982 229.849C167.06 230.283 166.002 230.334 165.042 229.989C164.082 229.644 163.298 228.933 162.863 228.01C162.768 227.816 162.694 227.613 162.641 227.404C162.397 226.53 162.468 225.599 162.843 224.773C163.218 223.947 163.873 223.28 164.691 222.889L188.673 211.54C189.462 211.169 190.353 211.077 191.201 211.278C192.048 211.479 192.803 211.962 193.341 212.647C193.527 212.866 193.682 213.109 193.803 213.369C194.02 213.826 194.144 214.321 194.17 214.827C194.195 215.332 194.121 215.837 193.951 216.313C193.782 216.79 193.52 217.228 193.18 217.603C192.841 217.979 192.431 218.283 191.974 218.5V218.5Z" fill="#071B23"/>
<path d="M193.341 212.647L162.632 227.403C162.387 226.53 162.459 225.598 162.834 224.772C163.209 223.946 163.863 223.279 164.682 222.889L188.664 211.54C189.453 211.166 190.346 211.072 191.196 211.273C192.046 211.475 192.803 211.959 193.341 212.647Z" fill="#22596D"/>
<path d="M479.568 101.371L463.718 108.629L332.913 33.5466C331.175 32.5627 329.237 31.9867 327.244 31.8621V6.91162C328.904 7.06928 330.512 7.57784 331.96 8.40364L479.943 93.3622C480.662 93.7745 481.253 94.3772 481.652 95.1039C482.05 95.8307 482.241 96.6533 482.202 97.4813C482.163 98.3093 481.897 99.1105 481.432 99.7968C480.967 100.483 480.322 101.028 479.568 101.371Z" fill="#093A49"/>
<path d="M496.516 100.091V131.231C496.516 131.337 496.516 131.452 496.516 131.558C496.466 132.752 496.084 133.908 495.412 134.896C494.741 135.885 493.806 136.665 492.714 137.151L206.487 267.274C204.089 268.371 201.446 268.826 198.819 268.593C196.192 268.36 193.671 267.448 191.503 265.946L43.8085 163.911C42.8206 163.236 42.0423 162.297 41.5624 161.201C41.0825 160.105 40.9204 158.896 41.0946 157.712L41.0272 126.909V126.61L65.4521 143.821L70.8221 141.492L192.465 225.478C194.432 226.839 196.718 227.666 199.1 227.879C201.481 228.091 203.878 227.682 206.054 226.691L453.382 113.355L463.68 108.639L465.537 109.707L470.301 112.441L496.477 100.11L496.516 100.091Z" fill="url(#paint2_linear_5801_53569)"/>
<mask id="mask0_5801_53569" style="mask-type:alpha" maskUnits="userSpaceOnUse" x="41" y="100" width="456" height="169">
<path d="M496.516 100.091V131.231C496.516 131.337 496.516 131.452 496.516 131.558C496.466 132.752 496.084 133.908 495.412 134.896C494.741 135.885 493.806 136.665 492.714 137.151L206.487 267.274C204.089 268.371 201.446 268.826 198.819 268.593C196.192 268.36 193.671 267.448 191.503 265.946L43.8085 163.911C42.8206 163.236 42.0423 162.297 41.5624 161.201C41.0825 160.105 40.9204 158.896 41.0946 157.712L41.0272 126.909V126.61L65.4521 143.821L70.8221 141.492L192.465 225.478C194.432 226.839 196.718 227.666 199.1 227.879C201.481 228.091 203.878 227.682 206.054 226.691L453.382 113.355L463.68 108.639L465.537 109.707L470.301 112.441L496.477 100.11L496.516 100.091Z" fill="url(#paint3_linear_5801_53569)"/>
</mask>
<g mask="url(#mask0_5801_53569)">
<path opacity="0.2" d="M79.8582 134.706V205.466" stroke="#5FC0E3" stroke-width="30.2578" stroke-miterlimit="10"/>
<path opacity="0.2" d="M122.597 166.077V236.837" stroke="#5FC0E3" stroke-width="7.56446" stroke-miterlimit="10"/>
<path opacity="0.2" d="M106.506 162.891V233.651" stroke="#C8F1FF" stroke-width="3.78223" stroke-miterlimit="10"/>
</g>
<path d="M456.434 101.872V117.735L415.485 135.389L412.54 136.66L400.838 141.598L381.59 130.105C380.858 129.672 380.251 129.055 379.829 128.316C379.407 127.576 379.185 126.74 379.185 125.889V97.9155L385.132 98.3295L456.434 101.872Z" fill="#22596D"/>
<path d="M415.485 116.224V137.305L400.838 142.647L381.59 131.154C380.858 130.721 380.251 130.104 379.829 129.365C379.407 128.625 379.185 127.789 379.185 126.938V97.9155L385.132 98.3295L415.485 116.224Z" fill="url(#paint4_linear_5801_53569)"/>
<path d="M493.243 93.7763L332.913 1.72341C331.186 0.736312 329.257 0.156841 327.273 0.0292452C325.227 -0.108981 323.178 0.244167 321.297 1.05922L44.9336 120.912C43.8164 121.394 42.8604 122.186 42.1784 123.194C41.4963 124.202 41.1167 125.384 41.0842 126.601C41.0794 126.674 41.0794 126.748 41.0842 126.822V126.89C41.0895 127.922 41.3454 128.938 41.8299 129.85C42.3143 130.763 43.0128 131.543 43.8654 132.126L62.545 145.073L64.6718 146.536L191.493 234.132C193.655 235.633 196.171 236.546 198.793 236.781C201.415 237.015 204.053 236.564 206.448 235.47L462.822 118.919L465.71 117.61L473.322 114.145L492.723 105.337C493.808 104.839 494.736 104.052 495.403 103.063C496.071 102.073 496.454 100.918 496.51 99.7256C496.565 98.5328 496.292 97.3477 495.719 96.3001C495.146 95.2524 494.296 94.3826 493.262 93.7859L493.243 93.7763ZM479.568 101.371L463.717 108.629L453.42 113.346L206.092 226.682C203.91 227.68 201.507 228.093 199.118 227.88C196.728 227.668 194.435 226.836 192.465 225.469L70.8598 141.482L321.297 32.8826C323.179 32.0708 325.228 31.721 327.273 31.8622V6.91179C328.94 7.06264 330.555 7.57156 332.008 8.40381L479.991 93.3623C480.708 93.7787 481.296 94.385 481.691 95.1145C482.086 95.8439 482.271 96.6681 482.227 97.4962C482.184 98.3244 481.912 99.1244 481.443 99.8081C480.974 100.492 480.325 101.033 479.568 101.371V101.371Z" fill="#F9EBB4"/>
<mask id="mask1_5801_53569" style="mask-type:alpha" maskUnits="userSpaceOnUse" x="41" y="0" width="456" height="237">
<path d="M493.244 93.7763L332.913 1.72341C331.187 0.736312 329.258 0.156841 327.274 0.0292452C325.228 -0.108981 323.179 0.244167 321.298 1.05922L44.9346 120.912C43.8174 121.394 42.8614 122.186 42.1794 123.194C41.4973 124.202 41.1176 125.384 41.0851 126.601C41.0803 126.674 41.0803 126.748 41.0851 126.822V126.89C41.0905 127.922 41.3464 128.938 41.8308 129.85C42.3153 130.763 43.0138 131.543 43.8664 132.126L62.5459 145.073L64.6728 146.536L191.494 234.132C193.656 235.633 196.172 236.546 198.794 236.781C201.416 237.015 204.054 236.564 206.449 235.47L462.823 118.919L465.711 117.61L473.323 114.145L492.724 105.337C493.809 104.839 494.737 104.052 495.404 103.063C496.072 102.073 496.455 100.918 496.511 99.7256C496.566 98.5328 496.293 97.3477 495.72 96.3001C495.147 95.2524 494.297 94.3826 493.263 93.7859L493.244 93.7763ZM479.569 101.371L463.718 108.629L453.421 113.346L206.093 226.682C203.911 227.68 201.508 228.093 199.119 227.88C196.729 227.668 194.436 226.836 192.466 225.469L70.8608 141.482L321.298 32.8826C323.18 32.0708 325.229 31.721 327.274 31.8622V6.91179C328.941 7.06264 330.556 7.57156 332.009 8.40381L479.992 93.3623C480.709 93.7787 481.297 94.385 481.692 95.1145C482.087 95.8439 482.272 96.6681 482.228 97.4962C482.185 98.3244 481.913 99.1244 481.444 99.8081C480.975 100.492 480.326 101.033 479.569 101.371V101.371Z" fill="#F9EBB4"/>
</mask>
<g mask="url(#mask1_5801_53569)">
<path opacity="0.7" d="M172.986 162.313L109.21 192.953" stroke="white" stroke-width="7.56446" stroke-miterlimit="10"/>
<path opacity="0.9" d="M125.821 135.274L62.0454 165.904" stroke="#FFFFFE" stroke-width="31.7707" stroke-miterlimit="10"/>
<path opacity="0.4" d="M156.251 151.445L92.4751 182.085" stroke="#ECFEFC" stroke-width="3.78223" stroke-miterlimit="10"/>
<path opacity="0.6" d="M449.658 146.103L389.693 108.562" stroke="#FFFEFF" stroke-width="17.3983" stroke-miterlimit="10"/>
<path opacity="0.7" d="M470.927 137.998L410.961 100.457" stroke="white" stroke-width="5.29512" stroke-miterlimit="10"/>
<path d="M246.637 246.704L186.672 209.163" stroke="#FFFEFF" stroke-width="6.05157" stroke-miterlimit="10"/>
</g>
<path d="M327.322 6.92093V31.8617C325.261 31.7229 323.196 32.0759 321.297 32.8917L70.8606 141.482L55.02 130.547C54.4894 130.181 54.0663 129.68 53.7949 129.095C53.5234 128.511 53.4133 127.864 53.4762 127.222C53.5391 126.581 53.7725 125.968 54.1523 125.447C54.5321 124.926 55.0444 124.517 55.636 124.261L321.423 7.79689C323.281 7.00357 325.313 6.70191 327.322 6.92093V6.92093Z" fill="url(#paint5_linear_5801_53569)"/>
<mask id="mask2_5801_53569" style="mask-type:alpha" maskUnits="userSpaceOnUse" x="199" y="100" width="298" height="169">
<path d="M496.516 100.082V131.221C496.516 131.327 496.516 131.443 496.516 131.549C496.466 132.743 496.084 133.899 495.412 134.887C494.74 135.875 493.806 136.656 492.714 137.141L301.299 224.16L254.865 245.27L206.496 267.255C204.213 268.299 201.706 268.758 199.202 268.593V236.828C201.706 236.988 204.212 236.528 206.496 235.49L254.865 213.504L259.08 211.579L462.833 118.948L465.72 117.639L473.332 114.174L492.724 105.337C493.759 104.875 494.653 104.147 495.316 103.228C495.978 102.308 496.386 101.229 496.496 100.101L496.516 100.082Z" fill="#4DA7C3"/>
</mask>
<g mask="url(#mask2_5801_53569)">
<path opacity="0.3" d="M219.69 213.986V284.746" stroke="#C7F1FF" stroke-width="7.56446" stroke-miterlimit="10"/>
<path opacity="0.3" d="M449.495 108.447V179.207" stroke="#C7F1FF" stroke-width="6.05157" stroke-miterlimit="10"/>
<path opacity="0.5" d="M429.65 118.227V188.987" stroke="#C7F1FF" stroke-width="18.9111" stroke-miterlimit="10"/>
</g>
<path opacity="0.6" d="M369.666 48.429L345.684 59.778C345.169 60.0201 344.607 60.145 344.038 60.1438C343.161 60.1478 342.31 59.8524 341.624 59.3065C340.938 58.7605 340.458 57.9966 340.265 57.1412C340.072 56.2859 340.177 55.3902 340.562 54.6024C340.947 53.8146 341.589 53.1819 342.383 52.8088L347.705 50.2965L366.375 41.4887C367.138 41.1233 368 41.0196 368.828 41.1936C369.656 41.3676 370.404 41.8096 370.956 42.4513C371.171 42.7054 371.353 42.987 371.494 43.2888C371.713 43.7462 371.839 44.2423 371.865 44.7485C371.891 45.2547 371.817 45.7612 371.647 46.2387C371.478 46.7163 371.215 47.1556 370.875 47.5315C370.535 47.9074 370.124 48.2124 369.666 48.429V48.429Z" fill="#071B23"/>
<path d="M370.956 42.4513L351.073 51.6826L347.705 50.2868L366.375 41.4887C367.138 41.1233 368 41.0196 368.828 41.1936C369.656 41.3676 370.404 41.8096 370.956 42.4513Z" fill="#22596D"/>
<path d="M370.984 51.1624C370.974 51.5875 370.843 52.0008 370.606 52.3537C370.369 52.7067 370.036 52.9847 369.646 53.155L136.022 157.702C135.567 157.908 135.064 157.985 134.569 157.924C134.111 157.877 133.671 157.718 133.289 157.462L103.927 137.526C103.791 137.436 103.679 137.313 103.603 137.168C103.528 137.024 103.49 136.862 103.494 136.699V136.699C103.48 136.494 103.531 136.291 103.64 136.118C103.749 135.945 103.91 135.811 104.1 135.736L338.928 32.6614C339.332 32.4831 339.773 32.4024 340.214 32.4258C340.655 32.4492 341.085 32.5761 341.468 32.7961L369.839 49.0736C370.127 49.2366 370.376 49.4599 370.57 49.7281C370.866 50.146 371.012 50.6514 370.984 51.1624V51.1624Z" fill="#061C23"/>
<mask id="mask3_5801_53569" style="mask-type:alpha" maskUnits="userSpaceOnUse" x="103" y="32" width="268" height="126">
<path d="M370.984 51.1624C370.974 51.5875 370.843 52.0008 370.606 52.3537C370.369 52.7067 370.036 52.9847 369.646 53.155L136.022 157.702C135.567 157.908 135.064 157.985 134.569 157.924C134.111 157.877 133.671 157.718 133.289 157.462L103.927 137.526C103.791 137.436 103.679 137.313 103.603 137.168C103.528 137.024 103.49 136.862 103.494 136.699V136.699C103.48 136.494 103.531 136.291 103.64 136.118C103.749 135.945 103.91 135.811 104.1 135.736L338.928 32.6614C339.332 32.4831 339.773 32.4024 340.214 32.4258C340.655 32.4492 341.085 32.5761 341.468 32.7961L369.839 49.0736C370.127 49.2366 370.376 49.4599 370.57 49.7281C370.866 50.146 371.012 50.6514 370.984 51.1624V51.1624Z" fill="#061C23"/>
</mask>
<g mask="url(#mask3_5801_53569)">
<path opacity="0.4" d="M155.568 96.9917L290.848 122.443" stroke="#093A49" stroke-width="7.56446" stroke-miterlimit="10"/>
<path opacity="0.7" d="M190.126 76.0928L325.416 101.544" stroke="#093A49" stroke-width="22.6934" stroke-miterlimit="10"/>
</g>
<g filter="url(#filter0_d_5801_53569)">
<path d="M152.479 136.15C152.701 135.941 152.992 135.821 153.297 135.813L161.602 135.168C162.439 135.1 162.844 134.523 162.247 134.205L156.405 131.452C156.155 131.327 156.059 131.134 156.165 130.942L158.619 126.495C158.869 126.042 158.022 125.715 157.272 125.975L149.9 128.526C149.586 128.618 149.252 128.618 148.937 128.526L142.201 126.418C141.518 126.206 140.594 126.581 140.728 127.024L141.999 131.356C142.056 131.548 141.912 131.741 141.633 131.876L134.993 135.023C134.319 135.341 134.598 135.909 135.426 135.919L143.587 136.044C143.728 136.035 143.869 136.057 144 136.108C144.131 136.16 144.25 136.24 144.347 136.342L147.003 140.395C147.273 140.808 148.36 140.78 148.745 140.395L152.479 136.15Z" fill="#FFEDC3"/>
</g>
<path d="M217.554 109.678L213.704 111.363L213.079 110.882L216.928 109.197L217.554 109.678ZM218.352 106.791C218.477 106.887 218.42 107.041 218.218 107.128L209.239 111.026C209.148 111.072 209.047 111.096 208.945 111.096C208.843 111.096 208.743 111.072 208.652 111.026L200.337 104.692C200.212 104.586 200.269 104.442 200.462 104.355L209.441 100.447C209.532 100.401 209.632 100.378 209.734 100.378C209.836 100.378 209.937 100.401 210.028 100.447L218.352 106.791ZM206.948 99.2439L199.192 102.613C197.584 103.316 197.122 104.538 198.171 105.318L208.199 112.961C209.239 113.76 211.375 113.837 213.011 113.134L220.768 109.765C222.375 109.062 222.837 107.84 221.788 107.06L211.76 99.3594C210.345 98.2813 208.555 98.5701 206.948 99.2439Z" fill="#A0ECE6"/>
<path d="M277.567 75.8917C277.932 75.7473 278.327 75.6222 278.722 75.497L275.748 73.1194C275.463 72.9366 275.117 72.8742 274.786 72.9462L265.393 74.3227C265.159 74.35 264.936 74.4398 264.748 74.5826L259.397 79.203C259.35 79.2335 259.31 79.2755 259.283 79.3251C259.256 79.3747 259.242 79.4304 259.242 79.487C259.242 79.5436 259.256 79.5993 259.283 79.6489C259.31 79.6985 259.35 79.7405 259.397 79.771L262.429 82.1967C265.499 84.6609 271.764 85.585 277.114 84.3144C277.246 84.2856 277.373 84.2369 277.49 84.17C277.913 83.8778 278.315 83.5561 278.693 83.2074C277.407 83.0434 276.183 82.5603 275.132 81.802C272.87 79.9924 273.958 77.3645 277.567 75.8917Z" fill="#A0ECE6"/>
<path d="M278.934 76.9891C276.528 77.9517 275.806 79.7517 277.317 80.9646C278.828 82.1775 282.004 82.3604 284.42 81.3785C286.835 80.3967 287.547 78.6255 286.036 77.4126C284.526 76.1998 281.35 76.0169 278.934 76.9891ZM279.897 77.7495C280.214 77.6114 280.56 77.55 280.906 77.57C281.252 77.5901 281.589 77.6911 281.889 77.865C282.312 78.202 282.1 78.7121 281.436 78.9817C281.117 79.1161 280.771 79.1747 280.426 79.153C280.08 79.1313 279.744 79.0298 279.444 78.8565C279.011 78.5292 279.204 78.0672 279.877 77.7495H279.897ZM283.582 80.6951C282.552 81.0978 281.433 81.2207 280.339 81.0512C279.897 80.6277 281.244 79.7806 282.043 79.463C282.841 79.1453 284.67 78.6929 285.218 79.0587C285.141 79.6747 284.574 80.2812 283.563 80.6951H283.582Z" fill="#A0ECE6"/>
<path d="M334.164 43.8946L316.794 52.1729C315.735 52.6831 315.446 53.5109 316.168 54.0114L323.973 59.5464C324.473 59.7971 325.025 59.9276 325.585 59.9276C326.145 59.9276 326.697 59.7971 327.197 59.5464L333.933 56.3217V58.6223L334.578 59.0843L342.277 55.2917L341.632 54.9452L337.783 54.4831L344.519 51.2584C345.588 50.7579 345.867 49.93 345.155 49.4199L337.398 43.8946C336.897 43.6416 336.343 43.5098 335.781 43.5098C335.22 43.5098 334.666 43.6416 334.164 43.8946V43.8946ZM341.969 49.4295L324.598 57.7078L318.093 53.097L335.416 44.8187L341.969 49.4295Z" fill="#A0ECE6"/>
<path opacity="0.4" d="M170.879 116.734L183.361 125.176" stroke="#7E9DA5" stroke-width="0.453868" stroke-linecap="round" stroke-linejoin="round"/>
<path opacity="0.4" d="M235.001 89.2524L247.483 97.704" stroke="#7E9DA5" stroke-width="0.453868" stroke-linecap="round" stroke-linejoin="round"/>
<path opacity="0.4" d="M299.452 61.106L311.934 69.5479" stroke="#7E9DA5" stroke-width="0.453868" stroke-linecap="round" stroke-linejoin="round"/>
<path d="M370.994 51.1626V77.8746C371.022 78.3321 370.909 78.7872 370.67 79.1781C370.43 79.569 370.076 79.8768 369.656 80.0597L136.022 184.607C135.569 184.818 135.065 184.895 134.569 184.828V157.962C135.065 158.024 135.567 157.947 136.022 157.741L369.647 53.1552C370.036 52.9849 370.369 52.7069 370.606 52.3539C370.843 52.0009 370.974 51.5876 370.984 51.1626H370.994Z" fill="#2E7389"/>
<path d="M179.146 183.066L221.596 164.094C222.177 163.837 222.813 163.733 223.445 163.792C224.076 163.851 224.682 164.071 225.205 164.431L259.918 188.38C260.175 188.558 260.381 188.801 260.513 189.085C260.646 189.369 260.7 189.683 260.671 189.995C260.641 190.307 260.529 190.605 260.346 190.859C260.163 191.114 259.916 191.314 259.629 191.441L217.862 209.942C216.961 210.341 215.971 210.498 214.99 210.397C214.009 210.295 213.072 209.94 212.271 209.364L178.906 185.454C178.703 185.315 178.542 185.124 178.438 184.902C178.335 184.679 178.293 184.433 178.318 184.189C178.343 183.944 178.432 183.711 178.578 183.514C178.724 183.316 178.92 183.162 179.146 183.066V183.066Z" fill="#79DAD3"/>
<g filter="url(#filter1_i_5801_53569)">
<path fill-rule="evenodd" clip-rule="evenodd" d="M358.028 68.8348C358.815 67.486 360.546 67.0305 361.895 67.8172L408.544 95.0292C409.893 95.8159 410.348 97.5471 409.561 98.8958C408.775 100.245 407.044 100.7 405.695 99.9134L359.046 72.7014C357.697 71.9146 357.241 70.1835 358.028 68.8348Z" fill="#082732"/>
</g>
<path opacity="0.6" d="M448.098 94.6038L424.116 105.982C423.601 106.224 423.039 106.349 422.47 106.347C421.594 106.352 420.742 106.056 420.056 105.51C419.37 104.964 418.891 104.2 418.698 103.345C418.505 102.49 418.609 101.594 418.994 100.806C419.379 100.018 420.022 99.3855 420.815 99.0125L426.137 96.5001L444.807 87.6635C445.57 87.2981 446.433 87.1944 447.261 87.3684C448.089 87.5424 448.836 87.9844 449.388 88.6261C449.604 88.8802 449.785 89.1618 449.927 89.4636C450.145 89.921 450.271 90.4171 450.297 90.9233C450.324 91.4295 450.25 91.936 450.08 92.4135C449.91 92.8911 449.647 93.3304 449.307 93.7063C448.967 94.0822 448.557 94.3872 448.098 94.6038Z" fill="#071B23"/>
<path d="M449.417 88.655L424.27 100.659L421.287 98.7911L444.836 87.6539C445.603 87.2929 446.468 87.1953 447.297 87.3763C448.125 87.5574 448.87 88.0068 449.417 88.655V88.655Z" fill="#22596D"/>
<path d="M455.471 102.969L438.379 110.217L431.893 112.97L417.66 119.006C416.835 119.37 415.93 119.513 415.034 119.42C414.138 119.327 413.282 119.002 412.549 118.476L379.675 98.9164C379.497 98.7877 379.356 98.6144 379.266 98.414C379.176 98.2135 379.141 97.9929 379.163 97.7744C379.186 97.5558 379.265 97.3471 379.394 97.169C379.523 96.991 379.696 96.85 379.896 96.7602L394.957 90.022L401.299 87.192L418.622 79.4431C419.15 79.2067 419.73 79.11 420.307 79.1622C420.883 79.2145 421.436 79.414 421.913 79.7415L455.741 100.206C455.965 100.372 456.143 100.594 456.257 100.85C456.371 101.105 456.416 101.386 456.389 101.664C456.362 101.942 456.263 102.209 456.102 102.438C455.941 102.666 455.724 102.849 455.471 102.969V102.969Z" fill="#559CFE"/>
<path d="M433.847 98.1833L417.804 98.8764C417.666 98.8818 417.529 98.8494 417.407 98.7826C417.286 98.7158 417.185 98.6172 417.116 98.4973C417.047 98.3774 417.011 98.2409 417.014 98.1024C417.016 97.964 417.057 97.8288 417.13 97.7116L421.894 89.1541C421.919 89.1165 421.95 89.0841 421.987 89.0588C422.024 89.0335 422.066 89.0158 422.11 89.0069C422.154 88.9979 422.199 88.9978 422.243 89.0066C422.287 89.0153 422.329 89.0328 422.366 89.0579L434.02 97.5768C434.075 97.6177 434.116 97.6743 434.138 97.7392C434.16 97.8041 434.162 97.8742 434.143 97.9401C434.124 98.0059 434.086 98.0645 434.033 98.108C433.98 98.1514 433.915 98.1777 433.847 98.1833Z" fill="#004099"/>
<path d="M420.354 104.816L404.312 105.518C404.174 105.522 404.037 105.489 403.916 105.422C403.796 105.355 403.695 105.257 403.625 105.138C403.555 105.019 403.519 104.883 403.519 104.745C403.52 104.607 403.558 104.472 403.628 104.353L408.44 95.796C408.464 95.7587 408.494 95.7265 408.531 95.7013C408.567 95.6761 408.608 95.6585 408.651 95.6495C408.694 95.6405 408.738 95.6403 408.782 95.649C408.825 95.6576 408.866 95.6749 408.902 95.6998L420.556 104.219C420.615 104.259 420.659 104.318 420.682 104.385C420.704 104.453 420.704 104.526 420.681 104.594C420.659 104.661 420.614 104.72 420.555 104.76C420.496 104.8 420.426 104.819 420.354 104.816Z" fill="#004099"/>
<path d="M432.519 334.44H420.442C408.306 326.113 374.585 303.232 365.192 299.729C353.644 295.435 348.466 290.69 347.629 284.144C346.792 277.598 339.661 274.201 323.166 264.892C306.671 255.584 272.054 255.661 266.482 253.158C262.376 251.15 258.428 247.98 254.804 245.194L301.238 224.085L347.86 241.617L414.109 310.567L432.519 334.44Z" fill="#061C23"/>
<path d="M239.006 201.273C234.57 198.636 218.162 186.777 217.834 181.877C217.411 175.447 226.351 173.868 233.232 178.027C237.852 180.915 254.318 190.04 258.725 192.514L239.006 201.273Z" fill="#2A8982"/>
<path d="M246.676 208.087L254.097 213.741L265.759 208.793L257.81 202.946L246.676 208.087Z" fill="#AF8F4F"/>
<path d="M300.746 224.343L254.804 245.193L254.097 213.741L258.588 211.84L262.225 210.207L300.746 224.343Z" fill="url(#paint6_linear_5801_53569)"/>
<path d="M202.86 186.734L218.902 186.041C219.041 186.036 219.178 186.068 219.299 186.135C219.42 186.202 219.521 186.3 219.59 186.42C219.66 186.54 219.695 186.677 219.692 186.815C219.69 186.954 219.65 187.089 219.576 187.206L214.812 195.763C214.788 195.801 214.756 195.833 214.719 195.859C214.682 195.884 214.64 195.902 214.597 195.911C214.553 195.92 214.507 195.92 214.463 195.911C214.419 195.902 214.378 195.885 214.341 195.86L202.686 187.341C202.631 187.3 202.59 187.243 202.568 187.178C202.546 187.113 202.544 187.043 202.563 186.977C202.582 186.912 202.62 186.853 202.673 186.81C202.726 186.766 202.791 186.74 202.86 186.734Z" fill="#093A49"/>
<path d="M216.352 180.102L232.394 179.399C232.532 179.395 232.669 179.428 232.79 179.495C232.91 179.562 233.011 179.66 233.081 179.779C233.151 179.898 233.187 180.034 233.187 180.172C233.186 180.31 233.148 180.445 233.078 180.564L228.266 189.121C228.242 189.159 228.212 189.191 228.175 189.216C228.139 189.241 228.098 189.259 228.055 189.268C228.012 189.277 227.968 189.277 227.924 189.269C227.881 189.26 227.84 189.243 227.804 189.218L216.15 180.699C216.091 180.658 216.047 180.6 216.024 180.532C216.002 180.465 216.002 180.391 216.025 180.324C216.048 180.256 216.092 180.198 216.151 180.158C216.21 180.118 216.28 180.098 216.352 180.102Z" fill="#093A49"/>
<path d="M415.794 217.782C414.605 217.456 413.396 217.202 412.176 217.022C410.471 216.753 408.752 216.583 407.027 216.512V216.512C406.45 216.512 405.853 216.512 405.227 216.512C401.812 216.506 398.406 216.884 395.074 217.638C388.687 219.09 382.71 221.966 377.588 226.051C376.465 226.943 375.4 227.861 374.393 228.804C368.937 234.011 364.67 240.335 361.882 247.344C361.096 249.261 360.418 251.222 359.852 253.216C358.948 256.212 358.345 259.292 358.052 262.408C358.052 262.408 348.429 246.487 323.407 239.72C298.385 232.953 277.82 232.982 273.017 224.453C268.215 215.925 252.182 201.274 253.76 194.286C255.339 187.297 254.915 189.165 259.929 183.052C260.281 182.623 260.674 182.23 261.103 181.878C261.323 181.69 261.555 181.516 261.796 181.358L262.643 180.857H262.691C263.247 180.574 263.831 180.348 264.433 180.184C269.245 178.894 274.49 181.252 274.49 181.252C273.691 180.338 272.565 179.221 271.333 178.008C267.936 174.716 263.326 170.692 259.968 167.814L259.9 167.747L257.119 165.408C256.687 165.039 256.138 164.836 255.57 164.836C255.002 164.836 254.452 165.039 254.02 165.408C252.692 166.553 250.306 168.671 246.119 172.521C240.961 177.248 232.752 177.334 228.854 175.091L228.652 174.976C228.208 174.717 227.806 174.392 227.459 174.013C227.137 173.659 226.903 173.233 226.776 172.772V172.772C226.659 172.196 226.685 171.601 226.853 171.039C227.021 170.476 227.325 169.964 227.738 169.547C233.204 162.809 239.132 150.43 246.244 141.362C247.91 139.226 250.164 137.623 252.729 136.75C255.294 135.878 258.057 135.775 260.68 136.453L269.476 138.725L270.323 138.936L274.788 140.092L275.385 140.246C275.63 140.313 275.89 140.313 276.135 140.246C276.366 140.191 276.581 140.082 276.761 139.928C277.502 139.293 278.83 138.157 280.235 136.973C282.16 135.365 284.181 133.671 285.047 133.045C285.607 132.66 286.233 132.383 286.895 132.227V132.227C288.983 131.688 292.197 131.669 296.644 131.881C302.735 132.179 304.044 128.993 309.414 127.674L310.213 127.501H310.271C313.774 126.788 315.9 127.318 318.739 127.809H318.836C319.798 127.982 320.914 128.146 322.185 128.252C323.386 128.353 324.595 128.255 325.765 127.963V127.963C327.112 127.636 328.344 127.116 329.614 126.692C329.98 126.577 330.346 126.461 330.731 126.365C332.296 125.925 333.938 125.833 335.542 126.095C341.134 126.981 348.775 139.918 366.126 167.862C383.334 195.518 415.303 217.446 415.794 217.782Z" fill="#775944"/>
<path d="M337.053 143.614C331.279 134.777 320.029 128.058 318.768 127.75C319.73 127.924 320.847 128.087 322.117 128.193C323.318 128.294 324.527 128.197 325.697 127.904C327.044 127.577 328.747 127.424 330.017 127C330.989 127.617 331.416 127.978 332.222 128.8C335.696 132.198 336.985 142.94 337.053 143.614Z" fill="url(#paint7_linear_5801_53569)"/>
<path d="M415.794 217.782C412.338 216.881 408.779 216.441 405.208 216.473C396.402 208.59 379.734 193.371 370.428 183.302C357.369 169.104 342.038 139.572 337.813 132.872C333.781 126.471 326.352 127.77 325.726 127.895C328.873 127.125 331.385 125.373 335.523 126.028C341.114 126.913 348.756 139.851 366.107 167.795C383.333 195.518 415.303 217.445 415.794 217.782Z" fill="#A57A62"/>
<path opacity="0.4" d="M296.21 197.769C293.939 198.26 284.546 198.366 280.572 196.807C276.597 195.247 275.827 194.622 268.725 190.425C262.036 186.469 263.211 180.722 262.691 180.895C263.247 180.612 263.831 180.386 264.433 180.221C269.245 178.931 274.49 181.29 274.49 181.29C273.691 180.375 272.565 179.259 271.333 178.046L284.046 181.983C287.102 186.054 290.84 189.565 295.094 192.36C302.899 197.615 297.615 197.471 296.21 197.769Z" fill="url(#paint8_linear_5801_53569)"/>
<path d="M294.478 180.895L288.887 185.015L256.368 163.482H252.788L245.09 171.587L235.119 175.832L228.874 175.072L228.672 174.956C228.228 174.697 227.825 174.373 227.478 173.993L226.795 172.752C227.132 172.809 234.494 173.859 241.279 165.677C248.198 157.302 253.125 152.008 265.626 160.864C278.128 169.72 294.478 180.895 294.478 180.895Z" fill="url(#paint9_linear_5801_53569)"/>
<path d="M259.919 167.756L257.119 165.408C256.687 165.039 256.137 164.836 255.569 164.836C255.001 164.836 254.452 165.039 254.02 165.408C252.692 166.553 250.305 168.671 246.119 172.521C240.874 177.334 232.463 177.334 228.652 174.976C242.558 176.275 248.467 161.191 251.441 161.644C254.222 162.048 259.303 167.131 259.919 167.756Z" fill="#3F2F26"/>
<path d="M250.392 161.99C250.392 161.99 254.992 158.14 264.529 164.464C274.066 170.788 292.553 189.135 292.553 189.135L274.528 181.261C274.528 181.261 258.976 165.455 254.058 165.407C247.668 165.34 250.392 161.99 250.392 161.99Z" fill="#3F2F26"/>
<path d="M361.844 247.324C359.823 252.127 358.525 257.204 357.995 262.388C357.995 262.388 348.371 246.467 323.349 239.7C298.328 232.933 277.762 232.962 272.96 224.433C268.158 215.904 252.182 201.273 253.761 194.285C255.339 187.296 254.915 189.164 259.929 183.051C260.464 182.397 261.093 181.826 261.796 181.357L262.643 180.856C262.643 180.856 255.666 189.462 259.92 196.547C264.173 203.631 279.87 220.939 283.892 222.344C287.915 223.75 308.972 224.067 323.657 230.642C335.745 236.08 352.981 238.785 361.844 247.324Z" fill="#3F2F26"/>
<path d="M374.354 228.775C368.898 233.982 364.631 240.306 361.843 247.314C361.056 249.232 360.379 251.192 359.813 253.186L316.795 228.159C316.795 228.159 321.231 207.838 340.661 201.735L374.354 228.775Z" fill="url(#paint10_linear_5801_53569)"/>
<path d="M407.017 216.512C406.439 216.512 405.843 216.512 405.217 216.512C401.801 216.506 398.396 216.884 395.064 217.638L366.087 192.197C374.393 189.434 379.455 192.197 379.455 192.197L407.017 216.512Z" fill="url(#paint11_linear_5801_53569)"/>
<path d="M247.63 167.332C243.454 168.786 238.877 168.555 234.869 166.688C234.869 166.687 236.562 169.681 242.616 170.028L247.63 167.332Z" fill="url(#paint12_linear_5801_53569)"/>
<path d="M257.909 162.432C257.909 162.432 251.364 159.785 249.728 150.429C249.728 150.429 246.774 158.129 255.445 163.491L257.909 162.432Z" fill="url(#paint13_linear_5801_53569)"/>
<path opacity="0.5" d="M325.1 151.574C325.1 151.574 322.589 155.117 319.268 154.385C313.234 153.057 311.82 151.69 307.874 150.342C303.928 148.995 293.563 132.813 293.563 132.813L300.213 133.314L321.232 143.546L325.1 151.574Z" fill="url(#paint14_linear_5801_53569)"/>
<path d="M299.385 133.257C299.982 133.43 300.588 133.555 301.166 133.786C304.909 135.317 314.783 139.783 319.566 145.463C325.34 152.278 324.85 151.604 326.303 151.941C327.987 152.336 338.525 150.43 329.19 142.007C319.855 133.584 310.125 128.011 307.315 128.694C304.707 129.349 298.327 132.939 299.385 133.257Z" fill="url(#paint15_linear_5801_53569)"/>
<path opacity="0.7" d="M301.369 157.899C298.041 158.717 294.606 159.015 291.187 158.784C285.798 158.525 252.827 142.035 249.112 140.139C246.976 139.051 252.24 136.866 252.24 136.866L298.491 144.567L301.369 157.899Z" fill="url(#paint16_linear_5801_53569)"/>
<path d="M274.509 181.261C274.509 181.261 294.093 191.474 299.713 196.037C299.783 196.105 299.878 196.142 299.975 196.14C300.072 196.138 300.165 196.098 300.233 196.028C300.301 195.957 300.337 195.863 300.336 195.766C300.334 195.668 300.293 195.575 300.223 195.508C294.844 189.549 284.171 178.402 274.923 172.723L274.509 181.261Z" fill="url(#paint17_linear_5801_53569)"/>
<path d="M310.145 127.442C309.606 127.616 305.237 129.108 304.149 131.938C302.985 134.96 291.771 132.394 287.518 132.5C289.606 131.961 292.129 131.61 296.575 131.822C302.667 132.121 303.976 128.934 309.346 127.616L310.145 127.442Z" fill="#A57A62"/>
<path d="M288.886 142.921C288.886 142.921 288.723 144.51 283.565 144.981C278.406 145.453 268.273 142.017 263.355 139.706C259.824 138.188 256.082 137.214 252.259 136.819C254.94 135.796 257.872 135.631 260.651 136.347L269.447 138.619L270.294 138.83C271.689 139.158 273.797 139.639 276.068 140.139C276.299 140.085 276.513 139.976 276.693 139.822C277.434 139.187 278.762 138.051 280.167 136.867L288.829 142.864L288.886 142.921Z" fill="#A57A62"/>
<path d="M276.424 144.278C276.424 144.278 295.614 151.401 301.446 156.734C307.278 162.067 305.67 162.125 309.145 162.962C312.619 163.8 322.021 156.859 312.802 150.525C303.582 144.192 287.318 132.053 284.893 132.987C282.468 133.921 273.229 143.354 276.424 144.278Z" fill="url(#paint18_linear_5801_53569)"/>
<path d="M258.784 196.913C258.784 196.913 259.274 192.581 265.597 189.135C263.917 190.368 262.576 192.005 261.698 193.895C260.819 195.785 260.433 197.866 260.574 199.945L258.784 196.913Z" fill="url(#paint19_linear_5801_53569)"/>
<path d="M254.059 136.867C254.059 136.867 248.102 136.184 248.217 147.032C248.217 147.032 248.535 137.609 256.878 137.329L254.059 136.867Z" fill="url(#paint20_linear_5801_53569)"/>
<path d="M272.69 141.496C272.69 141.496 268.648 140.63 264.298 147.849C264.298 147.849 271.997 141.371 275.009 143.816L272.69 141.496Z" fill="url(#paint21_linear_5801_53569)"/>
<path d="M407.017 210C407.017 210 358.517 207 353.981 255.834L414.517 217L407.017 210Z" fill="url(#paint22_linear_5801_53569)"/>
<path d="M415.794 217.782C414.604 217.456 413.395 217.202 412.175 217.021C400.627 209.542 384.151 192.678 375.913 183.523C366.771 173.368 344.704 137.636 340.585 131.457C336.466 125.277 330.73 126.297 330.73 126.297C332.295 125.857 333.937 125.765 335.542 126.028C346.018 126.297 363.518 171.5 387.518 192.5" fill="#DDB9A8"/>
<path d="M531.519 276.491V334.439H428.439C417.911 326.96 399.568 314.793 367.81 294.973C367.81 294.973 357.503 292.22 355.165 274.171C353.384 260.435 357.436 242.973 367.675 230.267C370.902 226.22 374.787 222.745 379.166 219.987C380.59 219.092 381.976 218.302 383.314 217.6C393.659 212.18 401.512 212.074 406.343 212.864C408.114 213.163 409.851 213.634 411.531 214.269C412.855 214.573 414.145 215.011 415.38 215.578C416.751 216.342 418.021 217.273 419.162 218.35C422.973 221.825 459.832 245.428 531.519 276.491Z" fill="#061C23"/>
<path d="M531.519 276.491V290.631C479.099 267.202 419.884 224.405 416.15 221.806C413.263 219.813 408.452 215 406.325 212.863C407.548 213.059 408.755 213.348 409.934 213.73H410.001C410.703 213.961 411.204 214.153 411.512 214.249C413.591 214.914 415.275 214.856 419.124 218.331C422.974 221.806 459.832 245.428 531.519 276.491Z" fill="#093A49"/>
<path d="M465.115 334.439H428.439C417.911 326.959 399.568 314.792 367.81 294.972C367.81 294.972 357.503 292.219 355.165 274.171C353.384 260.434 357.436 242.973 367.675 230.267C367.165 231.393 358.485 250.991 359.977 266.595C360.099 267.943 360.491 269.253 361.129 270.447C361.767 271.641 362.638 272.694 363.691 273.545C375.403 282.94 409.962 297.282 465.115 334.439Z" fill="#000001"/>
<path d="M416.15 221.806C416.15 221.806 402.032 208.83 383.295 217.599C393.64 212.18 401.493 212.074 406.324 212.864C408.095 213.163 409.832 213.634 411.512 214.269C412.836 214.573 414.126 215.011 415.361 215.578L416.15 221.806Z" fill="#093A49"/>
<path d="M422.415 226.234C422.415 226.234 401.032 218.995 388.415 236.697C375.798 254.399 376.751 269.714 376.751 269.714C376.341 262.463 377.45 255.207 380.009 248.41C382.568 241.613 386.52 235.427 391.61 230.248C395.384 226.302 400.196 223.503 405.492 222.174C410.787 220.846 416.351 221.042 421.54 222.74L422.415 226.234Z" fill="url(#paint23_linear_5801_53569)"/>
<path d="M531.519 276.491V280.389C527.419 278.348 515.332 272.351 494.526 262.389C468.32 249.875 427.66 225.492 422.762 222.922C417.863 220.352 409.962 213.729 409.962 213.729H410.03C410.732 213.961 411.233 214.153 411.541 214.249C413.619 214.913 415.304 214.856 419.153 218.331C423.002 221.806 459.832 245.428 531.519 276.491Z" fill="#2F718A"/>
<defs>
<filter id="filter0_d_5801_53569" x="119.486" y="110.754" width="58.1736" height="45.0694" filterUnits="userSpaceOnUse" color-interpolation-filters="sRGB">
<feFlood flood-opacity="0" result="BackgroundImageFix"/>
<feColorMatrix in="SourceAlpha" type="matrix" values="0 0 0 0 0 0 0 0 0 0 0 0 0 0 0 0 0 0 127 0" result="hardAlpha"/>
<feOffset/>
<feGaussianBlur stdDeviation="7.56446"/>
<feComposite in2="hardAlpha" operator="out"/>
<feColorMatrix type="matrix" values="0 0 0 0 1 0 0 0 0 1 0 0 0 0 1 0 0 0 0.7 0"/>
<feBlend mode="normal" in2="BackgroundImageFix" result="effect1_dropShadow_5801_53569"/>
<feBlend mode="normal" in="SourceGraphic" in2="effect1_dropShadow_5801_53569" result="shape"/>
</filter>
<filter id="filter1_i_5801_53569" x="357.643" y="67.4316" width="52.3044" height="32.8672" filterUnits="userSpaceOnUse" color-interpolation-filters="sRGB">
<feFlood flood-opacity="0" result="BackgroundImageFix"/>
<feBlend mode="normal" in="SourceGraphic" in2="BackgroundImageFix" result="shape"/>
<feColorMatrix in="SourceAlpha" type="matrix" values="0 0 0 0 0 0 0 0 0 0 0 0 0 0 0 0 0 0 127 0" result="hardAlpha"/>
<feOffset dy="-2"/>
<feComposite in2="hardAlpha" operator="arithmetic" k2="-1" k3="1"/>
<feColorMatrix type="matrix" values="0 0 0 0 0.133333 0 0 0 0 0.34902 0 0 0 0 0.427451 0 0 0 1 0"/>
<feBlend mode="normal" in2="shape" result="effect1_innerShadow_5801_53569"/>
</filter>
<linearGradient id="paint0_linear_5801_53569" x1="178.337" y1="213.609" x2="214.916" y2="213.609" gradientUnits="userSpaceOnUse">
<stop offset="0.83" stop-color="#093A49"/>
<stop offset="0.88" stop-color="#0C3D4D"/>
<stop offset="0.93" stop-color="#144758"/>
<stop offset="0.97" stop-color="#21586C"/>
<stop offset="0.98" stop-color="#22596D"/>
</linearGradient>
<linearGradient id="paint1_linear_5801_53569" x1="103.447" y1="118.005" x2="134.31" y2="118.005" gradientUnits="userSpaceOnUse">
<stop offset="0.84" stop-color="#093A49"/>
<stop offset="0.88" stop-color="#0B3D4D"/>
<stop offset="0.92" stop-color="#124858"/>
<stop offset="0.96" stop-color="#1D596C"/>
<stop offset="1" stop-color="#2E7389"/>
</linearGradient>
<linearGradient id="paint2_linear_5801_53569" x1="70.2254" y1="184.366" x2="204.764" y2="184.366" gradientUnits="userSpaceOnUse">
<stop offset="0.88" stop-color="#005B6F"/>
<stop offset="0.9" stop-color="#035E73"/>
<stop offset="0.91" stop-color="#0E697E"/>
<stop offset="0.93" stop-color="#207A92"/>
<stop offset="0.95" stop-color="#3893AC"/>
<stop offset="0.96" stop-color="#4DA7C3"/>
</linearGradient>
<linearGradient id="paint3_linear_5801_53569" x1="70.2254" y1="184.366" x2="204.764" y2="184.366" gradientUnits="userSpaceOnUse">
<stop offset="0.88" stop-color="#005B6F"/>
<stop offset="0.9" stop-color="#035E73"/>
<stop offset="0.91" stop-color="#0E697E"/>
<stop offset="0.93" stop-color="#207A92"/>
<stop offset="0.95" stop-color="#3893AC"/>
<stop offset="0.96" stop-color="#4DA7C3"/>
</linearGradient>
<linearGradient id="paint4_linear_5801_53569" x1="379.204" y1="120.281" x2="415.485" y2="120.281" gradientUnits="userSpaceOnUse">
<stop offset="0.83" stop-color="#093A49"/>
<stop offset="0.88" stop-color="#0C3D4D"/>
<stop offset="0.93" stop-color="#144758"/>
<stop offset="0.97" stop-color="#21586C"/>
<stop offset="0.98" stop-color="#22596D"/>
</linearGradient>
<linearGradient id="paint5_linear_5801_53569" x1="53.461" y1="74.1677" x2="327.322" y2="74.1677" gradientUnits="userSpaceOnUse">
<stop offset="0.85" stop-color="#22596D"/>
<stop offset="0.979952" stop-color="#1B5062"/>
<stop offset="1" stop-color="#093A49"/>
</linearGradient>
<linearGradient id="paint6_linear_5801_53569" x1="12552" y1="10204.5" x2="14792.5" y2="10204.5" gradientUnits="userSpaceOnUse">
<stop offset="0.85" stop-color="#22596D"/>
<stop offset="0.92" stop-color="#20576B"/>
<stop offset="0.95" stop-color="#1B5062"/>
<stop offset="0.98" stop-color="#114455"/>
<stop offset="1" stop-color="#093A49"/>
</linearGradient>
<linearGradient id="paint7_linear_5801_53569" x1="336.225" y1="131.543" x2="324.281" y2="137.49" gradientUnits="userSpaceOnUse">
<stop offset="0.36" stop-color="#775944"/>
<stop offset="0.85" stop-color="#60493B" stop-opacity="0.62"/>
<stop offset="1" stop-color="#594438" stop-opacity="0.5"/>
</linearGradient>
<linearGradient id="paint8_linear_5801_53569" x1="279.436" y1="184.505" x2="285.954" y2="204.102" gradientUnits="userSpaceOnUse">
<stop offset="0.12" stop-color="#A57A62"/>
<stop offset="0.36" stop-color="#8D6952"/>
<stop offset="0.61" stop-color="#7D5D48"/>
<stop offset="0.8" stop-color="#775944"/>
</linearGradient>
<linearGradient id="paint9_linear_5801_53569" x1="279.436" y1="170.528" x2="230.336" y2="171.202" gradientUnits="userSpaceOnUse">
<stop stop-color="#775944"/>
<stop offset="0.23" stop-color="#6B4F3D"/>
<stop offset="0.67" stop-color="#5A4034"/>
<stop offset="1" stop-color="#543B30"/>
</linearGradient>
<linearGradient id="paint10_linear_5801_53569" x1="347.831" y1="221.546" x2="341.939" y2="239.41" gradientUnits="userSpaceOnUse">
<stop offset="0.18" stop-color="#775944"/>
<stop offset="0.43" stop-color="#6A4F3D"/>
<stop offset="0.89" stop-color="#48362B"/>
<stop offset="1" stop-color="#3F2F26"/>
</linearGradient>
<linearGradient id="paint11_linear_5801_53569" x1="389.098" y1="201.389" x2="384.814" y2="206.346" gradientUnits="userSpaceOnUse">
<stop stop-color="#A57A62"/>
<stop offset="0.23" stop-color="#977059"/>
<stop offset="0.68" stop-color="#7F5F4A"/>
<stop offset="0.96" stop-color="#775944"/>
</linearGradient>
<linearGradient id="paint12_linear_5801_53569" x1="235.244" y1="166.659" x2="244.695" y2="168.727" gradientUnits="userSpaceOnUse">
<stop offset="0.12" stop-color="#775944"/>
<stop offset="0.32" stop-color="#5A4335"/>
<stop offset="0.52" stop-color="#46342A"/>
<stop offset="0.65" stop-color="#3F2F26"/>
</linearGradient>
<linearGradient id="paint13_linear_5801_53569" x1="252.125" y1="151.155" x2="253.435" y2="158.018" gradientUnits="userSpaceOnUse">
<stop stop-color="#775944"/>
<stop offset="0.51" stop-color="#5C4536"/>
<stop offset="1" stop-color="#3F2F26"/>
</linearGradient>
<linearGradient id="paint14_linear_5801_53569" x1="315.717" y1="133.083" x2="306.504" y2="146.22" gradientUnits="userSpaceOnUse">
<stop offset="0.31" stop-color="#997055" stop-opacity="0.5"/>
<stop offset="0.37" stop-color="#916B51" stop-opacity="0.61"/>
<stop offset="0.54" stop-color="#83614A" stop-opacity="0.83"/>
<stop offset="0.72" stop-color="#7A5B45" stop-opacity="0.96"/>
<stop offset="0.92" stop-color="#775944"/>
</linearGradient>
<linearGradient id="paint15_linear_5801_53569" x1="328.449" y1="131.649" x2="308.284" y2="147.248" gradientUnits="userSpaceOnUse">
<stop offset="0.46" stop-color="#775944"/>
<stop offset="0.6" stop-color="#735642"/>
<stop offset="0.73" stop-color="#674D3C"/>
<stop offset="0.87" stop-color="#543E31"/>
<stop offset="0.97" stop-color="#3F2F26"/>
</linearGradient>
<linearGradient id="paint16_linear_5801_53569" x1="279.908" y1="135.172" x2="273.4" y2="152.998" gradientUnits="userSpaceOnUse">
<stop offset="0.51" stop-color="#997055" stop-opacity="0.5"/>
<stop offset="0.55" stop-color="#926B51" stop-opacity="0.61"/>
<stop offset="0.66" stop-color="#83614A" stop-opacity="0.82"/>
<stop offset="0.77" stop-color="#7A5B45" stop-opacity="0.96"/>
<stop offset="0.89" stop-color="#775944"/>
</linearGradient>
<linearGradient id="paint17_linear_5801_53569" x1="281.313" y1="182.003" x2="296.338" y2="194.08" gradientUnits="userSpaceOnUse">
<stop stop-color="#3F2F26"/>
<stop offset="0.67" stop-color="#634A39"/>
<stop offset="1" stop-color="#775944"/>
</linearGradient>
<linearGradient id="paint18_linear_5801_53569" x1="306.902" y1="141.864" x2="280.721" y2="160.021" gradientUnits="userSpaceOnUse">
<stop offset="0.35" stop-color="#775944"/>
<stop offset="0.65" stop-color="#694E3D"/>
<stop offset="1" stop-color="#543E33"/>
</linearGradient>
<linearGradient id="paint19_linear_5801_53569" x1="260.92" y1="196.104" x2="264.944" y2="190.609" gradientUnits="userSpaceOnUse">
<stop offset="0.29" stop-color="#3F2F26"/>
<stop offset="0.47" stop-color="#48352B"/>
<stop offset="0.76" stop-color="#5F4737"/>
<stop offset="1" stop-color="#775944"/>
</linearGradient>
<linearGradient id="paint20_linear_5801_53569" x1="253.587" y1="136.492" x2="250.718" y2="147.687" gradientUnits="userSpaceOnUse">
<stop offset="0.07" stop-color="#A57A62"/>
<stop offset="0.69" stop-color="#805F4A"/>
<stop offset="0.83" stop-color="#775944"/>
</linearGradient>
<linearGradient id="paint21_linear_5801_53569" x1="265.393" y1="144.662" x2="275.182" y2="144.662" gradientUnits="userSpaceOnUse">
<stop stop-color="#775944"/>
<stop offset="0.82" stop-color="#A57A62"/>
</linearGradient>
<linearGradient id="paint22_linear_5801_53569" x1="354.395" y1="248.662" x2="405.332" y2="210.151" gradientUnits="userSpaceOnUse">
<stop offset="0.49" stop-color="#3F2F26"/>
<stop offset="0.9" stop-color="#775944"/>
</linearGradient>
<linearGradient id="paint23_linear_5801_53569" x1="411.723" y1="221.142" x2="377.539" y2="268.773" gradientUnits="userSpaceOnUse">
<stop offset="0.18" stop-color="#093A49"/>
<stop offset="0.36" stop-color="#08303C"/>
<stop offset="0.61" stop-color="#061C23"/>
</linearGradient>
</defs>
</svg>
